<svg width="24" height="24" viewBox="0 0 24 24" fill="none" xmlns="http://www.w3.org/2000/svg">
<g clip-path="url(#clip0_61_4431)">
<path fill-rule="evenodd" clip-rule="evenodd" d="M3.6827 11.0652C3.77496 11.2524 3.94105 11.3927 4.14105 11.4523C4.34105 11.512 4.55686 11.4856 4.7366 11.3795L9.28297 8.69666C9.6397 8.48615 9.75824 8.02631 9.54773 7.66958C9.33721 7.31284 8.87737 7.19431 8.52064 7.40482L5.6166 9.11854C6.18658 7.75709 7.15971 6.59969 8.4083 5.80414C9.73776 4.95706 11.3071 4.56637 12.8785 4.69127C14.4499 4.81616 15.9378 5.44982 17.1168 6.49626C18.2958 7.5427 19.1016 8.94489 19.4121 10.4904C19.7226 12.0359 19.5209 13.6405 18.8376 15.0611C18.1543 16.4817 17.0266 17.6409 15.6254 18.363C14.2241 19.0851 12.6257 19.3309 11.0722 19.063C9.51874 18.7952 8.09491 18.0283 7.01642 16.8786C6.73303 16.5765 6.2584 16.5613 5.9563 16.8447C5.6542 17.1281 5.63903 17.6027 5.92241 17.9048C7.22404 19.2924 8.94246 20.218 10.8173 20.5412C12.6922 20.8645 14.6213 20.5679 16.3125 19.6963C18.0037 18.8248 19.3647 17.4258 20.1894 15.7113C21.014 13.9968 21.2574 12.0602 20.8827 10.1949C20.5079 8.32966 19.5354 6.63737 18.1125 5.37442C16.6897 4.11148 14.8939 3.34671 12.9974 3.19598C11.1008 3.04525 9.20679 3.51677 7.60227 4.5391C6.05386 5.52569 4.85647 6.97337 4.17726 8.67552L2.81306 5.90746C2.62995 5.53592 2.18032 5.38316 1.80878 5.56627C1.43723 5.74938 1.28448 6.19901 1.46759 6.57056L3.6827 11.0652Z" fill="#4481FD"/>
</g>
<defs>
<clipPath id="clip0_61_4431">
<rect width="24" height="24" fill="white"/>
</clipPath>
</defs>
</svg>
